<?xml version="1.0" encoding="UTF-8" standalone="no"?>
<!-- Created with Inkscape (http://www.inkscape.org/) -->

<svg
   width="55.767239mm"
   height="44.15189mm"
   viewBox="0 0 55.767239 44.15189"
   version="1.1"
   id="svg1"
   xmlns="http://www.w3.org/2000/svg"
   xmlns:svg="http://www.w3.org/2000/svg">
  <defs
     id="defs1" />
  <g
     id="layer1"
     transform="translate(-17.385287,-9.7500013)">
    <g
       id="g11">
      <path
         style="baseline-shift:baseline;display:inline;overflow:visible;opacity:1;vector-effect:none;enable-background:accumulate;stop-color:#000000;stop-opacity:1"
         d="m 130.87305,82.498047 c -5.33096,0 -10.51427,1.75602 -14.7461,4.998047 l -26.957028,20.654296 26.957028,20.65234 c 4.23183,3.24203 9.41514,4.99805 14.7461,4.99805 h 0.19922 c 14.61977,0 26.58984,-11.42744 26.58984,-25.65234 0,-13.349533 -10.58011,-24.107342 -23.96094,-25.396487 v -0.253906 h -2.6289 z m 0,5.755859 h 0.19922 c 11.65228,0 20.83203,8.886449 20.83203,19.894534 0,11.00808 -9.17983,19.89648 -20.83203,19.89648 h -0.19922 c -4.06611,0 -8.01638,-1.33969 -11.24414,-3.8125 L 98.634766,108.14844 119.62891,92.066406 c 3.22776,-2.472807 7.17803,-3.8125 11.24414,-3.8125 z"
         id="rect3"
         transform="matrix(0.34559984,-0.26297275,0.26297275,0.34559984,-11.986587,39.736974)" />
      <path
         style="baseline-shift:baseline;display:inline;overflow:visible;opacity:1;vector-effect:none;enable-background:accumulate;stop-color:#000000;stop-opacity:1"
         d="m 130.87305,83.566406 c -5.09595,0 -10.05043,1.680192 -14.09571,4.779297 l -25.849606,19.804687 25.849606,19.80274 c 4.04528,3.0991 8.99976,4.77929 14.09571,4.77929 h 0.19922 c 14.0684,0 25.51953,-10.95677 25.51953,-24.58398 0,-12.755077 -10.07005,-23.045457 -22.89063,-24.326174 v -0.25586 h -2.6289 z m 0,3.619141 h 0.19922 c 12.20363,0 21.90234,9.357121 21.90234,20.962893 0,11.60577 -9.69877,20.96484 -21.90234,20.96484 h -0.19922 c -4.30112,0 -8.48021,-1.41552 -11.89453,-4.03125 L 96.876953,108.14844 118.97852,91.216797 c 3.41432,-2.615729 7.59341,-4.03125 11.89453,-4.03125 z"
         id="rect3-2"
         transform="matrix(-0.26236298,-0.63934317,-0.63934317,0.26236298,138.00809,83.661257)" />
      <g
         id="path5"
         style="opacity:1">
        <path
           style="baseline-shift:baseline;display:inline;overflow:visible;vector-effect:none;enable-background:accumulate;stop-color:#000000;stop-opacity:1"
           d="m 70.850034,19.903378 a 9.1085176,9.1085176 0 0 1 -9.108518,9.108517 9.1085176,9.1085176 0 0 1 -9.108518,-9.108517 9.1085176,9.1085176 0 0 1 9.108518,-9.108518 9.1085176,9.1085176 0 0 1 9.108518,9.108518 z"
           id="path62" />
        <path
           style="baseline-shift:baseline;display:inline;overflow:visible;vector-effect:none;enable-background:accumulate;stop-color:#000000;stop-opacity:1"
           d="m 61.742187,9.75 c -5.595609,0 -10.154296,4.558688 -10.154296,10.154297 0,5.595609 4.558687,10.152344 10.154296,10.152344 5.59561,0 10.154297,-4.556735 10.154297,-10.152344 C 71.896484,14.308688 67.337797,9.75 61.742187,9.75 Z m 0,2.089844 c 4.465382,0 8.062501,3.599071 8.0625,8.064453 0,4.465381 -3.597118,8.0625 -8.0625,8.0625 -4.465381,0 -8.064453,-3.597119 -8.064453,-8.0625 0,-4.465382 3.599072,-8.064453 8.064453,-8.064453 z"
           id="path63" />
      </g>
      <path
         style="baseline-shift:baseline;display:inline;overflow:visible;opacity:1;vector-effect:none;enable-background:accumulate;stop-color:#000000;stop-opacity:1"
         d="m 130.87305,82.498047 c -5.33096,0 -10.51427,1.75602 -14.7461,4.998047 l -26.957028,20.654296 26.957028,20.65234 c 4.23183,3.24203 9.41514,4.99805 14.7461,4.99805 h 0.19922 c 14.61977,0 26.58984,-11.42744 26.58984,-25.65234 0,-13.349533 -10.58011,-24.107342 -23.96094,-25.396487 v -0.253906 h -2.6289 z m 0,5.755859 h 0.19922 c 11.65228,0 20.83203,8.886449 20.83203,19.894534 0,11.00808 -9.17983,19.89648 -20.83203,19.89648 h -0.19922 c -4.06611,0 -8.01638,-1.33969 -11.24414,-3.8125 L 98.634766,108.14844 119.62891,92.066406 c 3.22776,-2.472807 7.17803,-3.8125 11.24414,-3.8125 z"
         id="path9"
         transform="matrix(-0.34559984,-0.26297275,-0.26297275,0.34559984,104.34585,39.869266)" />
    </g>
  </g>
</svg>
