<?xml version="1.0" encoding="UTF-8" standalone="no"?>
<!-- Created with Inkscape (http://www.inkscape.org/) -->

<svg
   width="46.066517mm"
   height="44.622864mm"
   viewBox="0 0 46.066517 44.622864"
   version="1.1"
   id="svg1"
   xmlns="http://www.w3.org/2000/svg"
   xmlns:svg="http://www.w3.org/2000/svg">
  <defs
     id="defs1" />
  <g
     id="layer1"
     transform="translate(-91.999852,-9.7994285)">
    <g
       id="g61">
      <path
         style="baseline-shift:baseline;display:inline;overflow:visible;opacity:1;vector-effect:none;stroke-linecap:round;enable-background:accumulate;stop-color:#000000;stop-opacity:1"
         d="m 113.50781,9.8652344 c -2.28455,0.1972336 -4.56688,0.8403446 -6.71875,1.9687496 -8.607486,4.513624 -11.933857,15.126882 -7.417966,23.69336 4.515886,8.566478 15.180086,11.903081 23.826176,7.46289 8.64609,-4.44019 12.06479,-15.024239 7.62304,-23.628906 l -0.002,-0.0039 -0.13672,-0.259766 -0.002,-0.0039 C 127.23741,12.698005 120.36148,9.273533 113.50781,9.8652344 Z m 0.19727,2.1796876 c 6.0088,-0.523757 12.02097,2.478611 15.04101,8.089844 l 0.12696,0.240234 c 3.89058,7.547403 0.9164,16.761145 -6.67969,20.662109 -7.59875,3.902328 -16.91898,0.982332 -20.88086,-6.533203 -3.961878,-7.515535 -1.06856,-16.759782 6.49609,-20.726562 1.89117,-0.991695 3.89356,-1.557837 5.89649,-1.732422 z"
         id="path2" />
      <g
         id="path6"
         style="opacity:1"
         transform="matrix(-0.00282579,0.50426764,-0.50426764,-0.00282579,169.93951,-24.421628)">
        <path
           style="baseline-shift:baseline;display:inline;overflow:visible;vector-effect:none;enable-background:accumulate;stop-color:#000000;stop-opacity:1"
           d="m 93.902696,108.14945 23.975324,18.36762 a 21.369529,21.369529 18.727956 0 0 12.9959,4.40594 v 0 h 0.19795 c 13.13599,0 23.71099,-10.15735 23.71099,-22.77384 0,-3.9901 -1.05772,-7.73417 -2.91965,-10.988746 -4.02541,-7.036234 -11.80974,-11.78453 -20.79134,-11.78453 h 2.63008 -2.82803 a 21.369532,21.369532 161.27205 0 0 -12.9959,4.405936 z"
           id="path64" />
        <path
           style="baseline-shift:baseline;display:inline;overflow:visible;vector-effect:none;enable-background:accumulate;stop-color:#000000;stop-opacity:1"
           d="m 130.87305,83.199219 c -5.17665,0 -10.20903,1.707287 -14.31836,4.855468 l -26.230471,20.095703 26.230471,20.09375 c 4.10933,3.14818 9.14171,4.85547 14.31836,4.85547 h 0.19922 c 14.25773,0 25.88671,-11.11873 25.88671,-24.95117 0,-4.37466 -1.16428,-8.497734 -3.20703,-12.068362 -4.00376,-6.998401 -11.44447,-11.681663 -20.05078,-12.535156 v -0.345703 h -2.6289 z m 0,4.353515 h 0.19922 c 8.21466,0 15.26784,4.33456 18.90234,10.6875 1.68112,2.938526 2.63281,6.302666 2.63281,9.908206 0,11.40053 -9.52091,20.59765 -21.53515,20.59765 h -0.19922 c -4.22043,0 -8.32162,-1.39037 -11.67188,-3.95703 L 97.482422,108.14844 119.20117,91.509766 c 3.35026,-2.566653 7.45145,-3.957032 11.67188,-3.957032 z"
           id="path65" />
      </g>
      <path
         style="baseline-shift:baseline;display:inline;overflow:visible;opacity:1;vector-effect:none;enable-background:accumulate;stop-color:#000000;stop-opacity:1"
         d="m 130.87305,83.199219 c -5.17665,0 -10.20903,1.707287 -14.31836,4.855468 l -26.230471,20.095703 26.230471,20.09375 c 4.10933,3.14818 9.14171,4.85547 14.31836,4.85547 h 0.19922 c 14.25773,0 25.88671,-11.11873 25.88671,-24.95117 0,-4.37466 -1.16428,-8.497734 -3.20703,-12.068362 -4.00376,-6.998401 -11.44447,-11.681663 -20.05078,-12.535156 v -0.345703 h -2.6289 z m 0,4.353515 h 0.19922 c 8.21466,0 15.26784,4.33456 18.90234,10.6875 1.68112,2.938526 2.63281,6.302666 2.63281,9.908206 0,11.40053 -9.52091,20.59765 -21.53515,20.59765 h -0.19922 c -4.22043,0 -8.32162,-1.39037 -11.67188,-3.95703 L 97.482422,108.14844 119.20117,91.509766 c 3.35026,-2.566653 7.45145,-3.957032 11.67188,-3.957032 z"
         id="path8"
         transform="matrix(-0.3585692,0.35457293,-0.35457293,-0.3585692,208.80106,33.898783)" />
      <path
         style="baseline-shift:baseline;display:inline;overflow:visible;opacity:1;vector-effect:none;enable-background:accumulate;stop-color:#000000;stop-opacity:1"
         d="m 130.87305,83.199219 c -5.17665,0 -10.20903,1.707287 -14.31836,4.855468 l -26.230471,20.095703 26.230471,20.09375 c 4.10933,3.14818 9.14171,4.85547 14.31836,4.85547 h 0.19922 c 14.25773,0 25.88671,-11.11873 25.88671,-24.95117 0,-4.37466 -1.16428,-8.497734 -3.20703,-12.068362 -4.00376,-6.998401 -11.44447,-11.681663 -20.05078,-12.535156 v -0.345703 h -2.6289 z m 0,4.353515 h 0.19922 c 8.21466,0 15.26784,4.33456 18.90234,10.6875 1.68112,2.938526 2.63281,6.302666 2.63281,9.908206 0,11.40053 -9.52091,20.59765 -21.53515,20.59765 h -0.19922 c -4.22043,0 -8.32162,-1.39037 -11.67188,-3.95703 L 97.482422,108.14844 119.20117,91.509766 c 3.35026,-2.566653 7.45145,-3.957032 11.67188,-3.957032 z"
         id="path12"
         transform="matrix(0.3585692,0.35457293,0.35457293,-0.3585692,21.265179,33.898783)" />
    </g>
  </g>
</svg>
