<?xml version="1.0" encoding="UTF-8" standalone="no"?>
<!-- Created with Inkscape (http://www.inkscape.org/) -->

<svg
   width="47.477463mm"
   height="47.126991mm"
   viewBox="0 0 47.477463 47.126991"
   version="1.1"
   id="svg1"
   xmlns="http://www.w3.org/2000/svg"
   xmlns:svg="http://www.w3.org/2000/svg">
  <defs
     id="defs1" />
  <g
     id="layer1"
     transform="translate(-153.79656,-7.3052013)">
    <g
       id="g17"
       transform="matrix(0.89078735,0,0,0.89078735,64.641116,-62.051133)"
       style="stroke:#000000;stroke-opacity:1">
      <path
         style="baseline-shift:baseline;display:inline;overflow:visible;opacity:1;vector-effect:none;stroke:none;stroke-linecap:round;enable-background:accumulate;stop-color:#000000;stop-opacity:1"
         d="m 124.63672,77.939453 c -3.44696,0.267134 -6.89633,1.207198 -10.15625,2.882813 -13.03967,6.702458 -18.165024,22.668704 -11.42578,35.625004 6.73924,12.95629 22.80277,18.05292 35.86328,11.39062 13.06051,-6.6623 18.2339,-22.6109 11.53515,-35.58789 a 1.25,1.25 0 0 0 -0.0645,-0.02148 1.25,1.25 0 0 0 -0.0117,-0.123047 C 145.2922,82.403868 134.9776,77.138052 124.63672,77.939453 Z m 0.20312,2.484375 c 9.37615,-0.732522 18.71151,4.040838 23.32422,12.841797 a 1.25,1.25 0 0 0 0.0586,0.01758 1.25,1.25 0 0 0 0.01,0.113281 c 6.07681,11.772144 1.4125,26.163054 -10.45117,32.214844 -11.86367,6.05178 -26.39424,1.43507 -32.50781,-10.31836 -6.113575,-11.75344 -1.49507,-26.157867 10.34961,-32.246093 2.96117,-1.522057 6.09141,-2.378873 9.21679,-2.623047 z"
         id="path1" />
      <g
         id="path14"
         style="opacity:1">
        <path
           style="baseline-shift:baseline;display:inline;overflow:visible;vector-effect:none;stroke:none;stroke-linecap:round;enable-background:accumulate;stop-color:#000000;stop-opacity:1"
           d="m 137.02423,96.905853 a 13.621007,13.514592 0 0 1 -5.86227,18.162907 13.621007,13.514592 0 0 1 -18.33088,-5.73854 13.621007,13.514592 0 0 1 5.70509,-18.212113 13.621007,13.514592 0 0 1 18.3798,5.582395 z"
           id="path66" />
        <path
           style="baseline-shift:baseline;display:inline;overflow:visible;vector-effect:none;stroke:none;stroke-linecap:round;enable-background:accumulate;stop-color:#000000;stop-opacity:1"
           d="m 123.58984,88.279297 c -1.92858,0.166175 -3.85619,0.708045 -5.67187,1.660156 -7.26271,3.808444 -10.07538,12.781047 -6.26367,20.011717 3.81171,7.23067 12.81998,10.04725 20.11523,6.30078 7.29525,-3.74646 10.18469,-12.69409 6.43555,-19.957028 l -0.002,-0.0039 -0.11328,-0.214844 -0.002,-0.0059 c -2.9055,-5.398403 -8.7123,-8.28954 -14.49805,-7.791015 z m 0.23829,2.642578 c 4.76177,-0.416177 9.52225,1.960608 11.91601,6.408203 l 0.0977,0.185547 c 3.08861,5.983345 0.73878,13.274545 -5.28711,16.369145 -6.0259,3.09459 -13.40662,0.78312 -16.54688,-5.17383 -3.14026,-5.95696 -0.85234,-13.268381 5.14649,-16.414065 1.4997,-0.786421 3.08657,-1.236274 4.67383,-1.375 z"
           id="path67" />
      </g>
      <path
         style="baseline-shift:baseline;display:inline;overflow:visible;opacity:1;vector-effect:none;stroke:none;stroke-linecap:round;enable-background:accumulate;stop-color:#000000;stop-opacity:1"
         d="m 120.98633,79.828125 c -2.58137,0.200052 -5.16613,0.903363 -7.60742,2.158203 -9.76519,5.01936 -13.60355,16.974983 -8.55664,26.677732 5.0469,9.70275 17.07662,13.52054 26.85742,8.53125 9.78079,-4.98929 13.65525,-16.93213 8.63867,-26.650388 a 0.93610001,0.93610001 0 0 0 -0.082,-0.02539 0.93610001,0.93610001 0 0 0 0.0254,-0.08398 C 136.45383,83.17018 128.73044,79.227969 120.98633,79.828125 Z m 0.15039,1.861328 c 7.02164,-0.548574 14.01241,3.02434 17.4668,9.615234 a 0.93610001,0.93610001 0 0 0 0.0664,0.05469 0.93610001,0.93610001 0 0 0 -0.0137,0.04492 c 4.55082,8.815963 1.05639,19.592913 -7.82813,24.125003 -8.88451,4.53208 -19.76539,1.07344 -24.34374,-7.72852 -4.57836,-8.801954 -1.12029,-19.589063 7.75,-24.148436 2.21757,-1.139843 4.56179,-1.780033 6.90234,-1.962891 z"
         id="path17" />
    </g>
  </g>
</svg>
